# xmcd
# Track frame offsets:
# 182
# 16875
# 32112
# 44872
# 57735
# 73527
#
# Disc length: 1173 seconds
# Revision: 0
# Processed by: cddbd v1.4PL0 Copyright (c) Steve Scherf et al.
# Submitted via: VisiTrax 2.9.5.180 - For more info visit www.synapsa.com
#
DISCID=56049306
DTITLE=Kathy Mattea - Now and then
DYEAR=1994
DGENRE=
TTITLE0=Love at the five and dime
TTITLE1=Eighteen wheels and a dozen roses
TTITLE2=Time passes by
TTITLE3=Lonesome standard time
TTITLE4=You I love
TTITLE5=Mary, did you know
EXTD=
EXTT0=
EXTT1=
EXTT2=
EXTT3=
EXTT4=
EXTT5=
PLAYORDER=
